<?xml version="1.0" encoding="utf-8"?>
<!-- Generator: Adobe Illustrator 24.2.0, SVG Export Plug-In . SVG Version: 6.00 Build 0)  -->
<svg version="1.1" id="Layer_1" xmlns="http://www.w3.org/2000/svg" xmlns:xlink="http://www.w3.org/1999/xlink" x="0px" y="0px"
	 viewBox="0 0 100 100" style="enable-background:new 0 0 100 100;" xml:space="preserve">
<style type="text/css">
	.st0{fill:#008000;}
	.st1{fill:#FFFFFF;}
	.st2{fill:#808080;}
	.st3{fill:#3F3F3F;}
</style>
<path class="st0" d="M21,0h79v100H21V0z"/>
<g>
	<rect width="24.5" height="100"/>
	<path class="st1" d="M19.6,0h5.9v100h-5.9V0z"/>
	<path d="M2,75h98v25H2V75z"/>
	<path class="st1" d="M0,75h100v5H0V75z"/>
	<rect x="19.6" y="75" class="st1" width="5.9" height="25"/>
	<rect x="45.1" y="75" class="st1" width="5.9" height="25"/>
	<rect x="71.6" y="75" class="st1" width="5.9" height="25"/>
	<g>
		<path class="st1" d="M52.8,36.7c3.1,0,5.7,2.6,5.7,5.8c0,3.2-2.6,5.8-5.7,5.8c-3.1,0-5.7-2.6-5.7-5.8c0,0,0,0,0,0
			C47.1,39.3,49.6,36.7,52.8,36.7 M52.8,35c-4.1,0-7.4,3.4-7.4,7.5c0,4.2,3.3,7.6,7.4,7.6c4.1,0,7.4-3.4,7.4-7.5c0,0,0,0,0,0
			C60.2,38.4,56.9,35,52.8,35z M72.9,36.7c3.1,0,5.7,2.6,5.7,5.8s-2.5,5.8-5.7,5.8s-5.7-2.6-5.7-5.8c0,0,0,0,0,0
			C67.3,39.3,69.8,36.7,72.9,36.7 M73,35c-4.1,0-7.4,3.4-7.4,7.6c0,4.2,3.3,7.6,7.4,7.5c4.1,0,7.4-3.4,7.4-7.6
			C80.4,38.4,77.1,35,73,35C73,35,73,35,73,35C72.9,35,73,35,73,35z"/>
		<path class="st1" d="M70.5,31.9L66.6,30l-1.9-3.8l0.7-0.7c1.8,0.7,3.8-0.1,4.6-2c0.7-1.8-0.1-3.9-1.9-4.7c-1.8-0.7-3.8,0.1-4.6,2
			c-0.2,0.4-0.3,0.9-0.3,1.4c0,0.4,0.1,0.8,0.2,1.2l-7.9,8.2c-0.6,0.6-0.5,1.5,0,2.1c0.1,0.1,0.1,0.1,0.2,0.1l6.4,4.7L60.3,45
			c-0.2,0.8,0.2,1.6,1,1.8c0.1,0,0.3,0.1,0.4,0.1c0.6,0,1.2-0.4,1.4-1l2.2-7.5c0.2-0.6,0-1.2-0.5-1.6l-5.9-4.3l3.8-4l1.7,3.3
			c0.1,0.3,0.4,0.5,0.7,0.6l4.3,2.1c0.7,0.4,1.6,0,1.9-0.7C71.5,33.1,71.2,32.3,70.5,31.9C70.5,31.9,70.5,31.9,70.5,31.9z"/>
	</g>
</g>
<g>
	<g>
		<path class="st2" d="M15.5,22.2L14,30l1.7,10.3l4.6,13.2l2.6,7.2l10.3,7.8l9.2-2.3l4.9-4.6v-5.5l-3.7-13.8l-6.3-18.1l-6-8.3
			L15.5,22.2L15.5,22.2z"/>
		<path class="st3" d="M41.7,79.5c2.7-0.9,4.4-2,5.8-3.3c0.2-5.5,3-4,3.1-4c0.9-1.8,1.3-3.6,1.3-5c0.1-3.8-3-8.9-3-8.9l-2.1-6.8
			c0,0,0.7-0.3,1.6-1.4c0.9-1.1-0.1-2.4-0.1-2.4L46.2,49c0,0-3-9.7-4.6-17.3s-5.2-12.5-6.3-14.5c-1.1-2-2-1.9-5.4-1.5
			c-2.8,0.3-6.2,1.3-7.2,1.6c-1,0.3-4.4,1.4-6.9,2.6c-3,1.5-3.8,2-3.6,4.3c0.1,2.3-0.1,8.4,2.8,15.6s5.8,16.9,5.8,16.9l-2.5,0.1
			c0,0-0.2,1.7,1.1,2.1s2.1,0.2,2.1,0.2l2.1,6.8c0,0,0.2,6,2.5,9.1c0.8,1.2,2.1,2.4,3.7,3.3c0.4-0.5,1.8-2.1,4.5,1.6
			c2,0.3,4.1,0.4,6.8-0.4l0.3-0.1C41.5,79.6,41.7,79.5,41.7,79.5L41.7,79.5z M45.1,51c0,0-3.3-1.2-6.1-10.6
			c-2.9-9.3-1.1-13.3-1.1-13.3S45.1,51,45.1,51z M19.2,31.8c-0.2-0.8-0.7-3.1-0.8-4.8c-0.1-1.6,3-4.2,5.6-5.1l0.3-0.1l0.3-0.1
			c2.7-0.8,6.7-0.3,7.5,1.1c0.8,1.5,1.7,3.7,2,4.5c0.3,0.8,0.6,2.2-1.2,2.8l-5.4,1.7l-0.4,0.1l-5.4,1.6
			C19.9,34.1,19.4,32.7,19.2,31.8L19.2,31.8z M15.6,34c0,0,3.6,2.3,6.4,11.6c2.9,9.3,0.8,12.2,0.8,12.2L15.6,34L15.6,34z M36.9,63.8
			c-6.2,1.9-9.5,0.3-10.7-1c-1.3-1.2-1.4-5.5-1.5-6.9c-0.1-1.3,1.2-2.2,2.4-2.6l5.6-1.7l0.9-0.3l5.6-1.7c1.2-0.4,2.7-0.4,3.4,0.8
			c0.6,1.1,3,4.7,2.6,6.6C44.9,58.8,43,61.9,36.9,63.8l-0.1-0.2L36.9,63.8z"/>
	</g>
</g>
</svg>

