<svg id="Layer_1" data-name="Layer 1" xmlns="http://www.w3.org/2000/svg" viewBox="0 0 100 100"><defs><style>.cls-1{fill:green;}.cls-2{fill:#fff;}.cls-3{fill:gray;}.cls-4{fill:#3f3f3f;}</style></defs><g id="svg_9" data-name="svg 9"><polyline id="svg_3" data-name="svg 3" class="cls-1" points="0 0 101.5 0 101.5 100 0 100"/></g><g id="bike"><path id="svg_2" data-name="svg 2" class="cls-2" d="M52.41,76a5.82,5.82,0,1,1-5.81,5.82h0A5.82,5.82,0,0,1,52.41,76m0-1.74A7.56,7.56,0,1,0,60,81.83h0A7.55,7.55,0,0,0,52.41,74.27Z"/><path id="svg_3-2" data-name="svg 3" class="cls-2" d="M73,76a5.82,5.82,0,1,1-5.79,5.84v0A5.84,5.84,0,0,1,73,76m0-1.74a7.56,7.56,0,1,0,7.58,7.56A7.56,7.56,0,0,0,73,74.27h0Z"/><path id="svg_4" data-name="svg 4" class="cls-2" d="M70.48,71.21l-4-1.94-1.94-3.78.71-.7a3.57,3.57,0,1,0-2-4.66,3.47,3.47,0,0,0-.26,1.39,3.4,3.4,0,0,0,.2,1.18l-8,8.21a1.46,1.46,0,0,0,0,2.06,1.24,1.24,0,0,0,.18.14L62,77.8l-1.93,6.48a1.46,1.46,0,0,0,1,1.81,1.54,1.54,0,0,0,.43.06,1.44,1.44,0,0,0,1.4-1l2.21-7.48a1.45,1.45,0,0,0-.56-1.6l-6-4.31,3.91-4,1.71,3.34a1.56,1.56,0,0,0,.67.65l4.42,2.11a1.46,1.46,0,1,0,1.27-2.62Z"/></g><g id="svg_8" data-name="svg 8"><path id="window" class="cls-3" d="M14.92,10.09,13,19.48,15.09,32l5.56,16,3.12,8.68L36.27,66l11.12-2.78,5.9-5.56v-6.6L48.78,34.41,41.14,12.53,33.84,2.46,14.92,10.09Z"/><path id="car" class="cls-4" d="M46.49,79.35h0a18.34,18.34,0,0,0,7-4c.28-6.65,3.67-4.85,3.75-4.87a13.4,13.4,0,0,0,1.63-6c.12-4.57-3.65-10.79-3.65-10.79l-2.51-8.2a5.87,5.87,0,0,0,2-1.67c1.11-1.31-.17-2.88-.17-2.88L52,42.5s-3.66-11.67-5.57-20.85S40.13,6.53,38.76,4.1s-2.47-2.26-6.51-1.83a59.35,59.35,0,0,0-8.72,2,55.78,55.78,0,0,0-8.35,3.18c-3.62,1.81-4.6,2.38-4.38,5.15s-.17,10.18,3.37,18.86,7,20.43,7,20.43l-3,.11s-.26,2,1.39,2.51a6,6,0,0,0,2.57.28L24.61,63s.25,7.21,3,11a14.83,14.83,0,0,0,4.52,4c.44-.58,2.16-2.53,5.48,2a17.85,17.85,0,0,0,8.21-.46h0l.41-.13c0,.08.26,0,.26,0ZM50.63,45s-4-1.44-7.36-12.75-1.35-16-1.35-16ZM19.38,21.75A52.94,52.94,0,0,1,18.43,16c-.17-2,3.59-5.09,6.81-6.17h0l.41-.12.4-.12h0c3.28-.92,8.05-.42,9,1.32a57.37,57.37,0,0,1,2.45,5.38c.38.95.73,2.71-1.46,3.38l-6.58,2-.48.15-6.5,2c-2.27.7-2.9-1.06-3.12-2.06Zm-4.44,2.6s4.39,2.74,7.76,14.06.95,14.71.95,14.71Zm25.74,36c-7.47,2.28-11.45.3-13-1.19S26,52.48,26,50.82s1.41-2.65,2.87-3.1l6.82-2.09,1.14-.34,6.82-2.09c1.46-.45,3.32-.48,4.11,1s3.62,5.73,3.14,7.93-2.7,6-10.18,8.26l-.07-.25.07.25Z"/></g></svg>