<svg id="Layer_1" data-name="Layer 1" xmlns="http://www.w3.org/2000/svg" viewBox="0 0 100 100"><defs><style>.cls-1{fill:none;}.cls-2{fill:green;}.cls-3{fill:#fff;}.cls-4{fill:gray;}.cls-5{fill:#3f3f3f;}</style></defs><rect id="canvas_background" data-name="canvas background" class="cls-1" x="-1" y="-1" width="102" height="102"/><g id="svg_9" data-name="svg 9"><rect id="svg_3" data-name="svg 3" class="cls-2" x="21" width="81" height="100"/></g><rect id="svg_1" data-name="svg 1" width="25" height="100"/><rect id="svg_2" data-name="svg 2" class="cls-3" x="20" width="6" height="100"/><rect id="blackout" x="2" y="75" width="100" height="25"/><rect id="svg_4" data-name="svg 4" class="cls-3" y="75" width="102" height="5"/><rect id="svg_5" data-name="svg 5" class="cls-3" x="20" y="75" width="6" height="25"/><rect id="svg_6" data-name="svg 6" class="cls-3" x="46" y="75" width="6" height="25"/><rect id="svg_7" data-name="svg 7" class="cls-3" x="73" y="75" width="6" height="25"/><g id="bike"><path id="svg_2-2" data-name="svg 2" class="cls-3" d="M53.82,36.74A5.82,5.82,0,1,1,48,42.55h0a5.83,5.83,0,0,1,5.81-5.81m0-1.74a7.56,7.56,0,1,0,7.56,7.56h0A7.55,7.55,0,0,0,53.82,35Z"/><path id="svg_3-2" data-name="svg 3" class="cls-3" d="M74.4,36.74a5.81,5.81,0,1,1-5.78,5.84v0a5.82,5.82,0,0,1,5.81-5.81m0-1.74A7.56,7.56,0,1,0,82,42.55,7.55,7.55,0,0,0,74.43,35h0Z"/><path id="svg_4-2" data-name="svg 4" class="cls-3" d="M71.89,31.94l-4-2L66,26.22l.7-.7a3.57,3.57,0,1,0-2-4.66,3.66,3.66,0,0,0-.27,1.39,3.41,3.41,0,0,0,.21,1.18l-8,8.21a1.45,1.45,0,0,0,0,2.06l.17.14,6.57,4.68L61.49,45a1.46,1.46,0,0,0,1,1.81,1.52,1.52,0,0,0,.42.06,1.47,1.47,0,0,0,1.41-1l2.2-7.48a1.44,1.44,0,0,0-.55-1.6l-6-4.31,3.91-4,1.71,3.34a1.5,1.5,0,0,0,.67.65l4.41,2.11a1.46,1.46,0,1,0,1.27-2.63Z"/></g><g id="svg_8" data-name="svg 8"><path id="window" class="cls-4" d="M15.55,22.19,14,30,15.69,40.3l4.59,13.22,2.59,7.19,10.34,7.76,9.2-2.3,4.88-4.6V56.11L43.56,42.32,37.24,24.21l-6-8.33L15.55,22.19Z"/><path id="car" class="cls-5" d="M41.67,79.5h0a15.27,15.27,0,0,0,5.82-3.32c.23-5.51,3-4,3.1-4a11.31,11.31,0,0,0,1.35-5c.09-3.77-3-8.92-3-8.92l-2.08-6.78a5,5,0,0,0,1.64-1.39c.91-1.08-.15-2.38-.15-2.38L46.24,49s-3-9.66-4.62-17.26S36.4,19.24,35.27,17.24s-2-1.88-5.38-1.52a48.45,48.45,0,0,0-7.22,1.62A46.85,46.85,0,0,0,15.76,20c-3,1.5-3.81,2-3.62,4.27a41.31,41.31,0,0,0,2.79,15.6c2.93,7.19,5.75,16.9,5.75,16.9l-2.47.1s-.22,1.68,1.15,2.07a4.89,4.89,0,0,0,2.13.23l2.07,6.79s.21,6,2.49,9.09a12.24,12.24,0,0,0,3.74,3.33c.36-.48,1.78-2.08,4.53,1.63a14.67,14.67,0,0,0,6.79-.39h0l.34-.1c0,.07.22,0,.22,0ZM45.1,51S41.79,49.85,39,40.49s-1.11-13.25-1.11-13.25ZM19.24,31.84a41.65,41.65,0,0,1-.79-4.76c-.14-1.65,3-4.21,5.64-5.1h0l.33-.1.34-.11h0c2.71-.75,6.65-.34,7.46,1.1a45.54,45.54,0,0,1,2,4.45,1.87,1.87,0,0,1-1.2,2.8L27.6,31.78l-.41.12-5.37,1.65c-1.88.57-2.4-.89-2.58-1.71ZM15.56,34S19.19,36.26,22,45.62s.79,12.18.79,12.18Zm21.3,29.78c-6.18,1.89-9.47.26-10.73-1s-1.39-5.52-1.45-6.9,1.17-2.19,2.38-2.56L32.7,51.6l.94-.29,5.65-1.72c1.21-.37,2.74-.4,3.4.79s3,4.75,2.59,6.56-2.23,4.94-8.42,6.83l-.06-.2.06.2Z"/></g></svg>