<?xml version="1.0" encoding="utf-8"?>
<!-- Generator: Adobe Illustrator 24.2.0, SVG Export Plug-In . SVG Version: 6.00 Build 0)  -->
<svg version="1.1" id="Layer_1" xmlns:svg="http://www.w3.org/2000/svg"
	 xmlns="http://www.w3.org/2000/svg" xmlns:xlink="http://www.w3.org/1999/xlink" x="0px" y="0px" viewBox="0 0 100 100"
	 style="enable-background:new 0 0 100 100;" xml:space="preserve">
<style type="text/css">
	.st0{fill:none;}
	.st1{fill:#008000;}
	.st2{fill:#FFFFFF;}
	.st3{fill:#808080;}
	.st4{fill:#3F3F3F;}
	.st5{fill:#31373D;}
	.st6{fill:#D6FFBB;}
	.st7{fill:#FCE2A9;}
	.st8{fill:#D86F6F;}
	.st9{fill:#E21E1E;}
	.st10{fill:#CE2935;}
	.st11{font-family:'Roboto-Medium';}
	.st12{font-size:14px;}
	.st13{fill:none;stroke:#000000;stroke-width:6;stroke-miterlimit:10;}
</style>
<g>
	<rect id="canvas_background" x="-481" y="-1" class="st0" width="102" height="102"/>
</g>
<g id="svg_9">
	<rect id="svg_3" x="-459" class="st1" width="81" height="100"/>
</g>
<g>
	<rect id="svg_1" x="-480" width="25" height="100"/>
	<rect id="svg_2" x="-460" class="st2" width="6" height="100"/>
	<rect id="blackout" x="-478" y="75" width="100" height="25"/>
	<rect id="svg_4" x="-480" y="75" class="st2" width="102" height="5"/>
	<rect id="svg_5" x="-460" y="75" class="st2" width="6" height="25"/>
	<rect id="svg_6" x="-434" y="75" class="st2" width="6" height="25"/>
	<rect id="svg_7" x="-407" y="75" class="st2" width="6" height="25"/>
	<g id="bike">
		<path id="svg_2_1_" class="st2" d="M-426.2,36.7c3.2,0,5.8,2.6,5.8,5.8s-2.6,5.8-5.8,5.8c-3.2,0-5.8-2.6-5.8-5.8c0,0,0,0,0,0
			C-432,39.3-429.4,36.7-426.2,36.7 M-426.2,35c-4.2,0-7.6,3.4-7.6,7.6c0,4.2,3.4,7.6,7.6,7.6c4.2,0,7.6-3.4,7.6-7.6c0,0,0,0,0,0
			C-418.6,38.4-422,35-426.2,35z"/>
		<path id="svg_3_1_" class="st2" d="M-405.6,36.7c3.2,0,5.8,2.6,5.8,5.8c0,3.2-2.6,5.8-5.8,5.8c-3.2,0-5.8-2.6-5.8-5.8c0,0,0,0,0,0
			C-411.4,39.3-408.8,36.7-405.6,36.7 M-405.6,35c-4.2,0-7.6,3.4-7.5,7.6s3.4,7.6,7.6,7.5c4.2,0,7.5-3.4,7.5-7.6
			C-398,38.4-401.4,35-405.6,35C-405.6,35-405.6,35-405.6,35L-405.6,35z"/>
		<path id="svg_4_1_" class="st2" d="M-408.1,31.9l-4-1.9l-1.9-3.8l0.7-0.7c1.8,0.7,3.9-0.1,4.7-2c0.7-1.8-0.1-3.9-2-4.7
			c-1.8-0.7-3.9,0.1-4.7,2c-0.2,0.4-0.3,0.9-0.3,1.4c0,0.4,0.1,0.8,0.2,1.2l-8,8.2c-0.6,0.6-0.6,1.5,0,2.1c0.1,0.1,0.1,0.1,0.2,0.1
			l6.6,4.7l-1.9,6.5c-0.2,0.8,0.2,1.6,1,1.8c0.1,0,0.3,0.1,0.4,0.1c0.6,0,1.2-0.4,1.4-1l2.2-7.5c0.2-0.6,0-1.2-0.6-1.6l-6-4.3l3.9-4
			l1.7,3.3c0.1,0.3,0.4,0.5,0.7,0.6l4.4,2.1c0.7,0.4,1.6,0,1.9-0.7C-407.1,33.1-407.4,32.3-408.1,31.9L-408.1,31.9z"/>
	</g>
</g>
<g>
	<g id="svg_8">
		<path id="window" class="st3" d="M-464.5,22.2L-466,30l1.7,10.3l4.6,13.2l2.6,7.2l10.3,7.8l9.2-2.3l4.9-4.6v-5.5l-3.7-13.8
			l-6.3-18.1l-6-8.3L-464.5,22.2L-464.5,22.2L-464.5,22.2z"/>
		<path id="car" class="st4" d="M-438.3,79.5L-438.3,79.5c2.7-0.9,4.4-2,5.8-3.3c0.2-5.5,3-4,3.1-4c0.9-1.8,1.3-3.6,1.3-5
			c0.1-3.8-3-8.9-3-8.9l-2.1-6.8c0,0,0.7-0.3,1.6-1.4c0.9-1.1-0.1-2.4-0.1-2.4l-2.1,1.3c0,0-3-9.7-4.6-17.3
			c-1.6-7.6-5.2-12.5-6.3-14.5c-1.1-2-2-1.9-5.4-1.5c-2.8,0.3-6.2,1.3-7.2,1.6c-1,0.3-4.4,1.4-6.9,2.6c-3,1.5-3.8,2-3.6,4.3
			c0.1,2.3-0.1,8.4,2.8,15.6c2.9,7.2,5.8,16.9,5.8,16.9l-2.5,0.1c0,0-0.2,1.7,1.1,2.1c1.4,0.4,2.1,0.2,2.1,0.2l2.1,6.8
			c0,0,0.2,6,2.5,9.1c0.8,1.2,2.1,2.4,3.7,3.3c0.4-0.5,1.8-2.1,4.5,1.6c2,0.3,4.1,0.4,6.8-0.4l0,0c0,0,0.2-0.1,0.3-0.1
			C-438.5,79.6-438.3,79.5-438.3,79.5L-438.3,79.5z M-434.9,51c0,0-3.3-1.2-6.1-10.6c-2.9-9.3-1.1-13.3-1.1-13.3L-434.9,51z
			 M-460.8,31.8c-0.2-0.8-0.7-3.1-0.8-4.8c-0.1-1.6,3-4.2,5.6-5.1l0,0l0.3-0.1c0,0-0.3,0.1,0.3-0.1l0,0c2.7-0.8,6.7-0.3,7.5,1.1
			c0.8,1.5,1.7,3.7,2,4.5c0.3,0.8,0.6,2.2-1.2,2.8c-1.5,0.5-4.4,1.4-5.4,1.7c-0.3,0.1-0.4,0.1-0.4,0.1c-1,0.3-3.9,1.2-5.4,1.6
			C-460.1,34.1-460.6,32.7-460.8,31.8L-460.8,31.8L-460.8,31.8z M-464.4,34c0,0,3.6,2.3,6.4,11.6c2.9,9.3,0.8,12.2,0.8,12.2
			L-464.4,34z M-443.1,63.8c-6.2,1.9-9.5,0.3-10.7-1c-1.3-1.2-1.4-5.5-1.4-6.9c-0.1-1.3,1.2-2.2,2.4-2.6c0.9-0.3,4-1.2,5.6-1.7
			c0,0,0.4-0.1,0.9-0.3c1.6-0.5,4.8-1.5,5.6-1.7c1.2-0.4,2.7-0.4,3.4,0.8c0.6,1.1,3,4.7,2.6,6.6S-437,61.9-443.1,63.8l-0.1-0.2
			L-443.1,63.8L-443.1,63.8z"/>
	</g>
</g>
<g id="svg_9_1_">
	<polyline id="svg_3_4_" class="st1" points="-360,0 -258.5,0 -258.5,100 -360,100 	"/>
</g>
<g id="bike_1_">
	<path id="svg_2_2_" class="st2" d="M-307.6,76c3.2,0,5.8,2.6,5.8,5.8c0,3.2-2.6,5.8-5.8,5.8s-5.8-2.6-5.8-5.8c0,0,0,0,0,0
		C-313.4,78.6-310.8,76-307.6,76 M-307.6,74.3c-4.2,0-7.6,3.4-7.6,7.6c0,4.2,3.4,7.6,7.6,7.6c4.2,0,7.6-3.4,7.6-7.6c0,0,0,0,0,0
		C-300,77.7-303.4,74.3-307.6,74.3z"/>
	<path id="svg_3_2_" class="st2" d="M-287,76c3.2,0,5.8,2.6,5.8,5.8s-2.6,5.8-5.8,5.8c-3.2,0-5.8-2.6-5.8-5.8c0,0,0,0,0,0
		C-292.8,78.6-290.2,76-287,76 M-287,74.3c-4.2,0-7.6,3.4-7.5,7.6s3.4,7.6,7.6,7.5c4.2,0,7.5-3.4,7.5-7.6
		C-279.4,77.7-282.8,74.3-287,74.3C-287,74.3-287,74.3-287,74.3L-287,74.3z"/>
	<path id="svg_4_2_" class="st2" d="M-289.5,71.2l-4-1.9l-1.9-3.8l0.7-0.7c1.8,0.7,3.9-0.1,4.7-2c0.7-1.8-0.1-3.9-2-4.7
		c-1.8-0.7-3.9,0.1-4.7,2c-0.2,0.4-0.3,0.9-0.3,1.4c0,0.4,0.1,0.8,0.2,1.2l-8,8.2c-0.6,0.6-0.6,1.5,0,2.1c0.1,0.1,0.1,0.1,0.2,0.1
		l6.6,4.7l-1.9,6.5c-0.2,0.8,0.2,1.6,1,1.8c0.1,0,0.3,0.1,0.4,0.1c0.6,0,1.2-0.4,1.4-1l2.2-7.5c0.2-0.6,0-1.2-0.6-1.6l-6-4.3l3.9-4
		l1.7,3.3c0.1,0.3,0.4,0.5,0.7,0.6l4.4,2.1c0.7,0.4,1.6,0,1.9-0.7C-288.5,72.4-288.8,71.5-289.5,71.2L-289.5,71.2z"/>
</g>
<g>
	<g id="svg_8_1_">
		<path id="window_1_" class="st3" d="M-345.1,10.1l-1.9,9.4l2.1,12.5l5.6,16l3.1,8.7l12.5,9.4l11.1-2.8l5.9-5.6v-6.6l-4.5-16.7
			l-7.6-21.9l-7.3-10.1L-345.1,10.1L-345.1,10.1L-345.1,10.1z"/>
		<path id="car_1_" class="st4" d="M-313.5,79.3L-313.5,79.3c3.2-1.1,5.3-2.4,7-4c0.3-6.7,3.7-4.9,3.7-4.9c1.1-2.1,1.6-4.3,1.6-6
			c0.1-4.6-3.7-10.8-3.7-10.8l-2.5-8.2c0,0,0.9-0.4,2-1.7c1.1-1.3-0.2-2.9-0.2-2.9l-2.5,1.6c0,0-3.7-11.7-5.6-20.9
			c-1.9-9.2-6.3-15.1-7.7-17.5c-1.4-2.4-2.5-2.3-6.5-1.8c-3.3,0.4-7.5,1.6-8.7,2c-1.2,0.4-5.4,1.6-8.4,3.2c-3.6,1.8-4.6,2.4-4.4,5.2
			c0.1,2.8-0.2,10.2,3.4,18.9c3.5,8.7,7,20.4,7,20.4l-3,0.1c0,0-0.3,2,1.4,2.5c1.7,0.5,2.6,0.3,2.6,0.3l2.5,8.2c0,0,0.2,7.2,3,11
			c1,1.4,2.6,2.9,4.5,4c0.4-0.6,2.2-2.5,5.5,2c2.4,0.4,4.9,0.4,8.2-0.5l0,0c0,0,0.2-0.1,0.4-0.1C-313.7,79.4-313.5,79.3-313.5,79.3
			L-313.5,79.3z M-309.4,45c0,0-4-1.4-7.4-12.8c-3.5-11.3-1.3-16-1.3-16L-309.4,45z M-340.6,21.7c-0.2-1-0.8-3.8-1-5.7
			c-0.2-2,3.6-5.1,6.8-6.2l0,0l0.4-0.1c0,0-0.4,0.1,0.4-0.1l0,0c3.3-0.9,8-0.4,9,1.3c1,1.8,2.1,4.4,2.4,5.4c0.4,0.9,0.7,2.7-1.5,3.4
			c-1.9,0.6-5.4,1.6-6.6,2c-0.3,0.1-0.5,0.1-0.5,0.1c-1.2,0.4-4.7,1.4-6.5,2C-339.8,24.5-340.4,22.7-340.6,21.7L-340.6,21.7
			L-340.6,21.7z M-345.1,24.4c0,0,4.4,2.7,7.8,14.1c3.5,11.3,0.9,14.7,0.9,14.7L-345.1,24.4z M-319.3,60.3c-7.5,2.3-11.5,0.3-13-1.2
			c-1.6-1.5-1.7-6.7-1.8-8.3c-0.1-1.6,1.4-2.7,2.9-3.1c1.1-0.3,4.9-1.5,6.8-2.1c0,0,0.5-0.1,1.1-0.3c1.9-0.6,5.8-1.8,6.8-2.1
			c1.5-0.4,3.3-0.5,4.1,1c0.8,1.4,3.6,5.7,3.1,7.9S-311.8,58.1-319.3,60.3l-0.1-0.2L-319.3,60.3L-319.3,60.3z"/>
	</g>
</g>
<rect x="-240" width="100" height="100"/>
<g>
	<rect id="svg_4_4_" x="-240.5" y="40.3" class="st2" width="100.5" height="10.7"/>
	<rect id="svg_5_1_" x="-226.9" y="46" class="st2" width="13.7" height="54"/>
	<rect id="svg_6_1_" x="-196.5" y="46" class="st2" width="12.9" height="54"/>
	<rect id="svg_7_1_" x="-167.5" y="46" class="st2" width="12.3" height="54"/>
</g>
<g>
	<g id="svg_8_2_">
		<path id="window_2_" class="st3" d="M-213.4,5.3l-4.4,8.5l-1.4,12.6l1,16.9l0.7,9.2l9.5,12.4l11.5,0.3l7.2-3.8l1.8-6.4l0.2-17.3
			l-1.5-23.1L-193.1,3L-213.4,5.3L-213.4,5.3L-213.4,5.3z"/>
		<path id="car_2_" class="st4" d="M-201.7,80.5L-201.7,80.5c3.4-0.2,5.8-0.9,7.9-2c2.1-6.3,4.8-3.7,4.9-3.7
			c1.7-1.7,2.7-3.7,3.2-5.3c1.3-4.4-0.6-11.4-0.6-11.4l-0.2-8.6c0,0,0.9-0.1,2.4-1.1c1.4-1,0.6-2.8,0.6-2.8l-2.9,0.8
			c0,0-0.4-12.2,0.3-21.6c0.6-9.4-2-16.3-2.7-19c-0.7-2.7-1.8-2.8-5.8-3.5c-3.3-0.5-7.7-0.5-8.9-0.5c-1.3,0-5.6,0.1-8.9,0.8
			c-4,0.8-5.1,1.1-5.6,3.8c-0.6,2.7-2.9,9.8-1.8,19.1s1.2,21.5,1.2,21.5l-2.9-0.7c0,0-0.8,1.9,0.7,2.8s2.4,1,2.4,1l0.2,8.6
			c0,0-1.7,7-0.1,11.4c0.5,1.6,1.7,3.4,3.3,5.1c0.6-0.4,2.8-1.8,4.8,3.4c2.2,1.1,4.6,1.8,8,1.8l0,0c0,0,0.3,0,0.4,0
			C-201.9,80.5-201.7,80.5-201.7,80.5L-201.7,80.5z M-188.4,48.5c0,0-3.5-2.5-3.6-14.3c-0.3-11.8,3-15.8,3-15.8L-188.4,48.5z
			 M-212.3,17.7c0.1-1,0.2-3.8,0.6-5.8c0.4-2,4.8-3.9,8.2-4.1l0,0l0.4,0c0,0-0.4,0,0.4,0l0,0c3.4,0,7.9,1.8,8.3,3.7
			c0.5,2,0.8,4.8,0.9,5.8c0.1,1,0,2.8-2.3,2.9c-2,0-5.6,0.1-6.9,0.2c-0.3,0-0.5,0-0.5,0c-1.3,0-4.9,0.1-6.8,0.2
			C-212.2,20.6-212.3,18.7-212.3,17.7L-212.3,17.7L-212.3,17.7z M-217.2,19c0,0,3.5,3.8,3.7,15.6c0.3,11.8-3.1,14.4-3.1,14.4
			L-217.2,19z M-202.2,60.6c-7.8,0.2-11.1-2.8-12.2-4.6c-1.1-1.8,0.2-6.9,0.6-8.5c0.3-1.5,2.1-2.2,3.6-2.2c1.1,0,5.1-0.1,7.1-0.2
			c0,0,0.5,0,1.2,0c2,0,6-0.1,7.1-0.2c1.5,0,3.3,0.4,3.7,2c0.4,1.5,1.9,6.5,0.9,8.5C-191.2,57.4-194.4,60.4-202.2,60.6l0-0.3
			L-202.2,60.6L-202.2,60.6z"/>
	</g>
</g>
<rect x="-120" y="0" width="100" height="100"/>
<g>
	<g id="svg_8_3_">
		<path id="window_3_" class="st3" d="M-44.8,79l4.6-8.4l1.8-12.6l-0.5-16.9l-0.4-9.2l-9.1-12.7l-11.4-0.7l-7.3,3.5l-2,6.3
			l-0.7,17.3l0.7,23.2l3.9,11.8L-44.8,79L-44.8,79L-44.8,79z"/>
		<path id="car_3_" class="st4" d="M-54.1,3.5L-54.1,3.5c-3.4,0.1-5.8,0.7-7.9,1.7c-2.3,6.3-5,3.5-5,3.5c-1.7,1.7-2.8,3.6-3.4,5.2
			c-1.5,4.3,0.2,11.4,0.2,11.4l-0.1,8.6c0,0-0.9,0.1-2.4,1c-1.5,0.9-0.7,2.8-0.7,2.8l2.9-0.7c0,0,0,12.2-0.9,21.6
			c-0.9,9.3,1.5,16.3,2.1,19c0.6,2.7,1.7,2.9,5.7,3.7c3.3,0.6,7.6,0.7,8.9,0.7c1.3,0,5.6,0,8.9-0.5c4-0.6,5.1-0.9,5.7-3.6
			c0.7-2.7,3.2-9.7,2.4-19s-0.5-21.6-0.5-21.6l2.9,0.8c0,0,0.9-1.9-0.6-2.8s-2.4-1-2.4-1l0.1-8.6c0,0,1.9-6.9,0.4-11.4
			c-0.5-1.6-1.6-3.5-3.1-5.2c-0.6,0.4-2.8,1.8-4.6-3.5c-2.2-1.1-4.6-1.9-8-2l0,0c0,0-0.3,0-0.4,0C-53.8,3.5-54.1,3.5-54.1,3.5
			L-54.1,3.5z M-68.4,35c0,0,3.4,2.6,3.2,14.4c-0.1,11.8-3.5,15.7-3.5,15.7L-68.4,35z M-45.5,66.5c-0.1,1-0.4,3.8-0.8,5.8
			c-0.4,1.9-5,3.8-8.4,3.8l0,0l-0.4,0c0,0,0.4,0-0.4,0l0,0c-3.4-0.1-7.8-2-8.2-4c-0.4-2-0.6-4.8-0.7-5.9c-0.1-1,0.1-2.8,2.4-2.8
			c2,0,5.6,0,6.9,0.1c0.3,0,0.5,0,0.5,0c1.3,0,4.9,0,6.8,0.1C-45.5,63.7-45.4,65.5-45.5,66.5L-45.5,66.5L-45.5,66.5z M-40.5,65.4
			c0,0-3.4-3.9-3.2-15.7c0.1-11.8,3.5-14.3,3.5-14.3L-40.5,65.4z M-54.3,23.3c7.8,0.1,11,3.1,12,5c1.1,1.9-0.4,6.9-0.8,8.5
			c-0.4,1.5-2.1,2.1-3.7,2.1c-1.1,0-5.1,0-7.1-0.1c0,0-0.5,0-1.2,0c-2,0-6,0-7.1-0.1c-1.5,0-3.3-0.5-3.6-2.2
			c-0.3-1.5-1.7-6.6-0.6-8.5C-65.3,26.2-62.1,23.3-54.3,23.3l0,0.3L-54.3,23.3L-54.3,23.3z"/>
	</g>
</g>
<g>
	<path class="st5" d="M-82.9,56.7c0,3.6-2.9,6.5-6.5,6.5h-16.2c-3.6,0-6.5-2.9-6.5-6.5V11.3c0-3.6,2.9-6.5,6.5-6.5h16.2
		c3.6,0,6.5,2.9,6.5,6.5V56.7z"/>
	<path class="st6" d="M-97.5,45.4c3.6,0,6.5,2.9,6.5,6.5c0,3.6-2.9,6.5-6.5,6.5s-6.5-2.9-6.5-6.5C-104,48.3-101.1,45.4-97.5,45.4z"
		/>
	<path class="st7" d="M-97.5,27.5c3.6,0,6.5,2.9,6.5,6.5s-2.9,6.5-6.5,6.5s-6.5-2.9-6.5-6.5S-101.1,27.5-97.5,27.5z"/>
	<path class="st8" d="M-97.5,8.5c4.2,0,7.7,3.4,7.7,7.7s-3.4,7.7-7.7,7.7c-4.2,0-7.7-3.4-7.7-7.7S-101.8,8.5-97.5,8.5z"/>
	<path class="st9" d="M-97.5,9.6c3.6,0,6.5,2.9,6.5,6.5s-2.9,6.5-6.5,6.5s-6.5-2.9-6.5-6.5S-101.1,9.6-97.5,9.6z"/>
</g>
<g>
	<g>
		<g id="svg_8_4_">
			<path id="window_4_" class="st3" d="M30.7,79.4l9.4-2.1l10.5-7l12.3-11.6l6.6-6.4l3.4-15.3l-7.1-9l-7.5-3.1l-6,2.7l-13.3,11
				l-16.8,16l-6.2,10.8L30.7,79.4L30.7,79.4L30.7,79.4z"/>
			<path id="car_4_" class="st10" d="M80.8,22.1L80.8,22.1c-2.3-2.5-4.4-3.8-6.5-4.8c-6.2,2.5-5.9-1.3-6-1.4c-2.4-0.2-4.6,0.3-6.1,1
				c-4.2,1.8-8.3,7.8-8.3,7.8l-6.4,5.7c0,0-0.7-0.6-2.3-1.1c-1.7-0.5-2.6,1.3-2.6,1.3l2.5,1.7c0,0-9.1,8.1-16.7,13.7
				s-11.2,12-12.8,14.2c-1.7,2.2-1,3.2,1,6.7c1.7,2.9,4.5,6.2,5.4,7.1c0.8,1,3.7,4.2,6.3,6.3c3.1,2.6,4.1,3.2,6.5,1.9
				c2.5-1.3,9.3-4,15.8-10.8s15.8-14.7,15.8-14.7l1.3,2.7c0,0,2-0.6,1.7-2.3c-0.3-1.7-0.8-2.5-0.8-2.5l6.4-5.7c0,0,6.5-3.2,8.8-7.3
				c0.9-1.4,1.6-3.5,1.8-5.8c-0.7-0.2-3.2-0.9-0.5-5.8c-0.6-2.4-1.6-4.7-3.8-7.3l0,0c0,0-0.2-0.2-0.3-0.3
				C81,22.3,80.8,22.1,80.8,22.1L80.8,22.1z M47.8,32.5c0,0,0.3,4.2-8.6,12c-8.9,7.8-14,7.8-14,7.8L47.8,32.5z M39.5,70.5
				c-0.8,0.6-3.1,2.3-4.8,3.2c-1.7,1-6.1-1.2-8.4-3.7l0,0l-0.3-0.3c0,0,0.3,0.3-0.3-0.3l0,0c-2.2-2.6-3.7-7.2-2.5-8.8
				c1.3-1.7,3.2-3.7,3.9-4.4c0.7-0.7,2.2-1.8,3.7-0.1c1.3,1.5,3.7,4.2,4.5,5.2c0.2,0.3,0.3,0.4,0.3,0.4c0.8,1,3.2,3.7,4.5,5.1
				C41.6,68.6,40.3,69.9,39.5,70.5L39.5,70.5L39.5,70.5z M43.7,73.5c0,0,0.7-5.1,9.6-12.9c8.9-7.8,13-6.9,13-6.9L43.7,73.5z
				 M65.9,35.2c5.2,5.9,5,10.3,4.3,12.3c-0.7,2.1-5.4,4.3-6.9,5c-1.4,0.8-3-0.2-4-1.3c-0.7-0.8-3.4-3.8-4.7-5.4c0,0-0.3-0.4-0.8-0.9
				c-1.3-1.5-4-4.5-4.7-5.4c-1-1.1-1.8-2.8-0.8-4.1c0.9-1.3,3.7-5.7,5.9-6.1C56.4,28.9,60.7,29.4,65.9,35.2l-0.2,0.2L65.9,35.2
				L65.9,35.2z"/>
		</g>
	</g>
	<text transform="matrix(0.6243 -0.5541 0.6638 0.7479 32.2626 41.0339)" class="st2 st11 st12">No</text>
	<text transform="matrix(0.6243 -0.5541 0.6638 0.7479 54.8347 80.8978)" class="st2 st11 st12">Parking</text>
</g>
<circle class="st13" cx="50" cy="50" r="44.3"/>
<line class="st13" x1="80.6" y1="19.6" x2="16.3" y2="79.1"/>
</svg>
