<svg width="100" height="100" xmlns="http://www.w3.org/2000/svg"><path fill="none" d="M-1-1h102v102H-1z"/><path fill="green" d="M21 0h81v100H21z"/><g><rect height="100" width="25%"/><path fill="#fff" d="M20 0h6v100h-6z"/><path d="M2 75h100v25H2z"/><path fill="#fff" d="M0 75h102v5H0z"/><rect fill="#fff" height="25%" width="6%" y="75%" x="20%"/><rect fill="#fff" height="25%" width="6%" y="75%" x="46%"/><rect fill="#fff" height="25%" width="6%" y="75%" x="73%"/><g stroke="null"><path d="M53.825 36.743a5.811 5.811 0 1 1-5.811 5.81 5.818 5.818 0 0 1 5.811-5.81m0-1.747a7.558 7.558 0 1 0 7.55 7.558 7.558 7.558 0 0 0-7.55-7.558zM74.4 36.743a5.811 5.811 0 1 1-5.783 5.81 5.818 5.818 0 0 1 5.811-5.81m0-1.747A7.558 7.558 0 1 0 82 42.554a7.55 7.55 0 0 0-7.6-7.558h.028z" fill="#fff"/><path d="m71.892 31.939-3.98-1.944-1.937-3.776.705-.704a3.571 3.571 0 1 0-2.219-3.268 3.451 3.451 0 0 0 .204 1.183l-8.023 8.206a1.458 1.458 0 0 0 .198 2.205l6.572 4.684-1.923 6.48a1.465 1.465 0 0 0 .979 1.817 1.74 1.74 0 0 0 .422.057 1.458 1.458 0 0 0 1.409-1.043l2.205-7.473a1.458 1.458 0 0 0-.557-1.606l-6.03-4.304 3.91-4.008 1.712 3.346a1.486 1.486 0 0 0 .669.648l4.416 2.113a1.458 1.458 0 1 0 1.268-2.627v.014z" fill="#fff"/></g></g><g><g stroke="null"><path fill="gray" d="m15.548 22.187-1.587 7.773 1.724 10.344 4.598 13.219 2.586 7.184 10.345 7.759 9.195-2.3 4.885-4.597v-5.46L43.56 42.316l-6.322-18.104-6.035-8.333-15.653 6.308z"/><path d="M41.67 79.497c2.668-.89 4.385-2.002 5.818-3.322.227-5.506 3.035-4.013 3.102-4.034.933-1.755 1.334-3.567 1.347-4.967.094-3.776-3.022-8.922-3.022-8.922l-2.075-6.787s.719-.293 1.635-1.381c.917-1.089-.14-2.382-.14-2.382l-2.1 1.303s-3.025-9.655-4.613-17.252-5.221-12.511-6.349-14.517c-1.128-2.007-2.042-1.874-5.385-1.513-2.765.33-6.212 1.311-7.22 1.62-1.008.307-4.435 1.355-6.912 2.627-2.993 1.503-3.805 1.971-3.618 4.265.12 2.315-.144 8.42 2.787 15.606s5.756 16.903 5.756 16.903l-2.47.094s-.22 1.684 1.149 2.074 2.128.231 2.128.231l2.074 6.787s.207 5.961 2.485 9.086c.793 1.153 2.118 2.364 3.739 3.339.367-.48 1.786-2.09 4.538 1.625 2.014.339 4.08.369 6.789-.386l.336-.103c.02.067.222.006.222.006zm3.425-28.453s-3.304-1.194-6.092-10.555c-2.856-9.34-1.113-13.253-1.113-13.253l7.205 23.808zM19.238 31.837c-.18-.827-.656-3.106-.792-4.754-.137-1.648 2.972-4.216 5.64-5.104l.336-.103.336-.103c2.708-.754 6.654-.344 7.462 1.098.83 1.51 1.709 3.666 2.023 4.452.313.786.61 2.238-1.204 2.792l-5.443 1.664-.403.124-5.375 1.643c-1.882.575-2.4-.882-2.58-1.71zM15.56 33.99s3.633 2.269 6.42 11.63c2.856 9.34.785 12.177.785 12.177L15.561 33.99zm21.303 29.783c-6.182 1.89-9.475.252-10.734-.98-1.325-1.21-1.395-5.525-1.45-6.904-.1-1.292 1.167-2.193 2.377-2.563L32.7 51.6l.94-.288 5.645-1.725c1.21-.37 2.744-.398 3.403.796.638 1.128 2.993 4.743 2.592 6.555-.401 1.813-2.236 4.945-8.417 6.835l-.062-.201.062.201z" fill="#3f3f3f"/></g></g></svg>