<?xml version="1.0"?>
<svg width="100" height="100" xmlns="http://www.w3.org/2000/svg" xmlns:svg="http://www.w3.org/2000/svg">
 <g>
  <title>background</title>
  <rect fill="none" id="canvas_background" height="102" width="102" y="-1" x="-1"/>
 </g>
 <g id="svg_9">
  <title>green paint</title>
  <rect id="svg_3" fill="green" height="100" width="81.000007" x="20.999993" y="0"/>
 </g>
 <g>
  <rect id="svg_1" fill="black" height="100" width="25%"/>
  <rect id="svg_2" fill="white" height="100" width="6" x="20" y="0"/>
  <rect id="blackout" y="75" fill="black" height="25" width="100" x="2"/>
  <rect id="svg_4" fill="white" y="75" height="5" width="102.000005" x="-0.000006"/>
  <rect id="svg_5" fill="white" height="25%" width="6%" y="75%" x="20%"/>
  <rect id="svg_6" fill="white" height="25%" width="6%" y="75%" x="46%"/>
  <rect id="svg_7" fill="white" height="25%" width="6%" y="75%" x="73%"/>
  <g stroke="null" id="bike">
   <title stroke="null">bike</title>
   <path stroke="null" id="svg_2" d="m53.824986,36.742836a5.811094,5.811094 0 1 1 -5.811089,5.811092a5.818139,5.818139 0 0 1 5.811089,-5.811092m0,-1.746857a7.557944,7.557944 0 1 0 7.550903,7.557949a7.557944,7.557944 0 0 0 -7.550903,-7.557949z" fill="#ffffff"/>
   <path stroke="null" id="svg_3" d="m74.39978,36.742836a5.811094,5.811094 0 1 1 -5.782913,5.811092a5.818139,5.818139 0 0 1 5.811089,-5.811092m0,-1.746857a7.557944,7.557944 0 1 0 7.572044,7.557949a7.5509,7.5509 0 0 0 -7.60022,-7.557949l0.028175,0z" fill="#ffffff"/>
   <path stroke="null" id="svg_4" d="m71.892212,31.938992l-3.979721,-1.944067l-1.937027,-3.775452l0.704376,-0.70438a3.571182,3.571182 0 1 0 -2.218781,-3.268293a3.451437,3.451437 0 0 0 0.204269,1.183346l-8.022835,8.205971a1.458057,1.458057 0 0 0 0.197216,2.204693l6.571835,4.684093l-1.922943,6.480251a1.4651,1.4651 0 0 0 0.979073,1.817287a1.739808,1.739808 0 0 0 0.422623,0.056355a1.458057,1.458057 0 0 0 1.408745,-1.04248l2.204704,-7.473415a1.458057,1.458057 0 0 0 -0.556458,-1.605976l-6.029461,-4.30373l3.90929,-4.007896l1.711632,3.345783a1.486231,1.486231 0 0 0 0.669159,0.648026l4.416435,2.113125a1.458057,1.458057 0 1 0 1.267868,-2.627319l0,0.01408z" fill="#ffffff"/>
  </g>
 </g>
 <g>
  <title>car</title>
  <g id="svg_8" stroke="null">
   <path id="window" fill="gray" d="m15.548498,22.186754l-1.587578,7.772846l1.72415,10.344889l4.597727,13.218464l2.586224,7.183952l10.344885,7.758663l9.195457,-2.298866l4.885082,-4.597725l0,-5.459797l-3.735645,-13.793179l-6.32188,-18.103546l-6.034513,-8.333371l-15.653897,6.307677l-0.00001,-0.00001l-0.000001,0.000002z" stroke="null"/>
   <path id="car" d="m41.67067,79.496872l0,0c2.667229,-0.888931 4.384323,-2.001701 5.817654,-3.321617c0.226841,-5.506508 3.034451,-4.01368 3.10165,-4.034218c0.933018,-1.754753 1.334045,-3.567284 1.346886,-4.967239c0.094597,-3.776154 -3.021584,-8.921867 -3.021584,-8.921867l-2.074883,-6.786633c0,0 0.718594,-0.293163 1.634926,-1.381542c0.916328,-1.088371 -0.140385,-2.381763 -0.140385,-2.381763l-2.099709,1.303226c0,0 -3.025444,-9.655434 -4.613262,-17.252251s-5.22102,-12.510984 -6.348763,-14.517393c-1.127747,-2.006417 -2.042366,-1.873738 -5.385387,-1.512951c-2.764385,0.330835 -6.211832,1.311348 -7.219751,1.619499c-1.007917,0.308151 -4.43482,1.355862 -6.9116,2.627411c-2.993786,1.503092 -3.805687,1.971739 -3.618652,4.265762c0.119831,2.314569 -0.144246,8.420259 2.787464,15.606192s5.755571,16.903011 5.755571,16.903011l-2.4695,0.093719c0,0 -0.219982,1.683704 1.148294,2.073616s2.127964,0.231121 2.127964,0.231121l2.074877,6.786617c0,0 0.206285,5.961891 2.484034,9.086212c0.793484,1.153442 2.118969,2.364647 3.739326,3.338753c0.367645,-0.479774 1.786007,-2.089012 4.53797,1.625076c2.014114,0.339409 4.080444,0.368935 6.788769,-0.385605l0,0c0,0 0.201572,-0.06163 0.335972,-0.102722c0.020546,0.0672 0.222122,0.005569 0.222122,0.005569l-0.000004,0.000015zm3.424389,-28.453129c0,0 -3.304073,-1.194096 -6.092407,-10.554657c-2.85553,-9.340012 -1.112743,-13.252684 -1.112743,-13.252684l7.205151,23.807341zm-25.857353,-19.206911c-0.179325,-0.82688 -0.655672,-3.105913 -0.792198,-4.754108c-0.136522,-1.64819 2.972822,-4.21526 5.640049,-5.104189l0,0c0,0 0.335974,-0.102718 0.335974,-0.102718c0,0 -0.335974,0.102718 0.335976,-0.102716l0,0c2.708324,-0.754539 6.654367,-0.344521 7.462843,1.098232c0.829014,1.509949 1.708527,3.665726 2.022243,4.451511c0.313717,0.785789 0.610737,2.237963 -1.20351,2.792633c-1.545467,0.472496 -4.434822,1.355862 -5.442739,1.664013c-0.26878,0.082172 -0.403164,0.123259 -0.403164,0.123259c-1.007912,0.308151 -3.897264,1.191513 -5.375538,1.643467c-1.881441,0.575214 -2.400591,-0.882511 -2.579916,-1.709389l-0.000019,0.000008l0,-0.000002zm-3.676863,2.152773c0,0 3.632771,2.269199 6.421103,11.629757c2.855528,9.340004 0.78405,12.177574 0.78405,12.177574l-7.205153,-23.807331zm21.302679,29.783794c-6.181873,1.889992 -9.474827,0.25164 -10.733114,-0.98011c-1.32548,-1.211208 -1.395233,-5.524906 -1.449585,-6.904327c-0.100998,-1.29166 1.166277,-2.193439 2.375778,-2.563221c0.873524,-0.267063 4.031656,-1.232601 5.644316,-1.725639c0,0 0.403156,-0.123257 0.940712,-0.287605c1.612667,-0.493042 4.770798,-1.45858 5.644321,-1.725639c1.209496,-0.369781 2.743835,-0.398033 3.402939,0.79649c0.638557,1.127327 2.99292,4.742558 2.591892,6.555088c-0.401031,1.812531 -2.235394,4.944981 -8.417271,6.834969l-0.06163,-0.20158l0.06163,0.20158l0.000011,-0.000004z" fill="#3f3f3f" stroke="null"/>
  </g>
 </g>
</svg>