<svg id="Layer_1" data-name="Layer 1" xmlns="http://www.w3.org/2000/svg" viewBox="0 0 100 100"><defs><style>.cls-1{fill:gray;}.cls-2{fill:#3f3f3f;}.cls-3{fill:#31373d;}.cls-4{fill:#d6ffbb;}.cls-5{fill:#fce2a9;}.cls-6{fill:#d86f6f;}.cls-7{fill:#e21e1e;}</style></defs><rect width="100" height="100"/><g id="svg_8" data-name="svg 8"><path id="window" class="cls-1" d="M75.24,79l4.65-8.39,1.76-12.55-.51-16.91-.38-9.22L71.65,19.25l-11.44-.68L52.92,22.1l-2,6.29-.7,17.26L51,68.81l3.94,11.8L75.24,79Z"/><path id="car" class="cls-2" d="M65.9,3.47h0A18.15,18.15,0,0,0,58,5.19c-2.26,6.26-5,3.52-5,3.52A13.68,13.68,0,0,0,49.59,14c-1.47,4.32.25,11.38.25,11.38l-.06,8.58a6,6,0,0,0-2.39,1c-1.45.92-.7,2.8-.7,2.8L49.58,37s0,12.22-.93,21.56,1.48,16.31,2.06,19,1.67,2.9,5.66,3.69a59.05,59.05,0,0,0,8.91.75,56.22,56.22,0,0,0,8.92-.52c4-.65,5.1-.89,5.72-3.61s3.21-9.65,2.44-19-.51-21.57-.51-21.57l2.88.78s.87-1.86-.57-2.8a5.89,5.89,0,0,0-2.37-1l.07-8.58s1.92-7,.43-11.37a15,15,0,0,0-3.1-5.21c-.6.42-2.82,1.76-4.65-3.52a17.8,17.8,0,0,0-8-2h-.43c0-.08-.25-.08-.25-.08ZM51.64,35S55,37.6,54.83,49.41s-3.52,15.68-3.52,15.68ZM74.49,66.55a54,54,0,0,1-.81,5.76c-.44,2-5,3.79-8.36,3.84h-.85c-3.39-.11-7.79-2-8.2-4a56.67,56.67,0,0,1-.72-5.87c-.08-1,.11-2.8,2.4-2.78l6.88,0h.51l6.79,0c2.38,0,2.45,1.89,2.36,2.91h0Zm5-1.15s-3.36-3.94-3.18-15.74,3.51-14.32,3.51-14.32ZM65.74,23.34c7.81.06,11,3.14,12,5s-.39,6.87-.83,8.48-2.14,2.11-3.67,2.1l-7.13-.06H64.94l-7.13-.06c-1.53,0-3.31-.53-3.64-2.15s-1.73-6.55-.61-8.5,4.37-4.89,12.18-4.82v0Z"/></g><path class="cls-3" d="M37.07,56.73a6.5,6.5,0,0,1-6.49,6.5H14.34a6.5,6.5,0,0,1-6.5-6.5V11.27a6.5,6.5,0,0,1,6.5-6.5H30.58a6.5,6.5,0,0,1,6.49,6.5Z"/><path class="cls-4" d="M22.46,45.37A6.5,6.5,0,1,1,16,51.86,6.49,6.49,0,0,1,22.46,45.37Z"/><path class="cls-5" d="M22.46,27.5A6.5,6.5,0,1,1,16,34,6.5,6.5,0,0,1,22.46,27.5Z"/><path class="cls-6" d="M22.46,8.47a7.67,7.67,0,1,1-7.67,7.67A7.66,7.66,0,0,1,22.46,8.47Z"/><path class="cls-7" d="M22.46,9.64a6.5,6.5,0,1,1-6.5,6.5A6.5,6.5,0,0,1,22.46,9.64Z"/></svg>