<svg id="Layer_1" data-name="Layer 1" xmlns="http://www.w3.org/2000/svg" viewBox="0 0 100 100"><defs><style>.cls-1{fill:gray;}.cls-2{fill:#ce2935;}.cls-3{fill:#fff;}.cls-4{fill:none;stroke:#000;stroke-miterlimit:10;stroke-width:6px;}</style></defs><g id="svg_8" data-name="svg 8"><path id="window" class="cls-1" d="M30.67,79.37,40,77.26l10.54-7L62.84,58.59l6.63-6.42,3.41-15.25-7.1-9-7.49-3.1-6,2.71-13.34,11-16.8,16L15.94,65.25,30.67,79.37Z"/><path id="car" class="cls-2" d="M80.83,22.12h0a18.25,18.25,0,0,0-6.55-4.76C68.1,19.85,68.35,16,68.3,16a13.46,13.46,0,0,0-6.14,1c-4.21,1.77-8.33,7.76-8.33,7.76l-6.45,5.66a5.9,5.9,0,0,0-2.33-1.12c-1.66-.47-2.56,1.34-2.56,1.34L45,32.24s-9.13,8.13-16.71,13.65-11.2,12-12.85,14.21-1.05,3.18,1,6.68a59.72,59.72,0,0,0,5.37,7.15,56.68,56.68,0,0,0,6.33,6.31c3.14,2.55,4.06,3.21,6.5,1.87s9.35-4,15.81-10.83S66.19,56.55,66.19,56.55l1.33,2.67s2-.59,1.72-2.29a5.78,5.78,0,0,0-.81-2.46l6.45-5.66s6.47-3.19,8.78-7.25a15,15,0,0,0,1.82-5.78c-.71-.17-3.19-.93-.47-5.81a17.82,17.82,0,0,0-3.79-7.28h0l-.28-.32c.06-.06-.11-.25-.11-.25Zm-33,10.36s.33,4.23-8.6,12-14,7.8-14,7.8Zm-8.31,38a51.65,51.65,0,0,1-4.85,3.23c-1.75,1-6.12-1.18-8.42-3.67h0l-.28-.32-.28-.32h0c-2.18-2.61-3.69-7.16-2.5-8.77A56.81,56.81,0,0,1,27,56.22c.71-.74,2.16-1.78,3.67-.06l4.54,5.17.34.38,4.48,5.11c1.57,1.79.22,3.08-.6,3.69Zm4.2,3s.69-5.13,9.62-12.85,13-6.91,13-6.91ZM65.9,35.23c5.15,5.87,5,10.31,4.25,12.31s-5.39,4.28-6.89,5-3-.2-4-1.35l-4.71-5.36L53.77,45c-1.34-1.54-4-4.54-4.71-5.37-1-1.14-1.8-2.82-.81-4.14s3.74-5.65,5.94-6.11,6.55,0,11.71,5.88l-.19.16.19-.16Z"/></g><path class="cls-3" d="M37.82,36.1l-1.08,1-7.45-2.83L34,39.52l-1.08.95L26.29,33l1.08-1,7.48,2.84-4.7-5.3,1.07-.95Z"/><path class="cls-3" d="M36.3,32.41a5.17,5.17,0,0,1-1-1.7A3,3,0,0,1,35.14,29,2.53,2.53,0,0,1,36,27.69a2.47,2.47,0,0,1,2.15-.62,4.16,4.16,0,0,1,2.33,1.35l.26.29a5.1,5.1,0,0,1,1,1.69,3,3,0,0,1,.13,1.67,2.62,2.62,0,0,1-3.07,2,4.49,4.49,0,0,1-2.43-1.56Zm1.14-.81a3.33,3.33,0,0,0,1.48,1.07,1.24,1.24,0,0,0,1.63-1.46,3.92,3.92,0,0,0-1-1.69,3.4,3.4,0,0,0-1.49-1.07,1.22,1.22,0,0,0-1.25.24,1.23,1.23,0,0,0-.38,1.2A3.77,3.77,0,0,0,37.44,31.6Z"/><path class="cls-3" d="M54.1,76.62l2.44,2.76-1.07,1-6.61-7.45,2.38-2.11A2.9,2.9,0,0,1,53.47,70a3.24,3.24,0,0,1,2.14,1.17,3.14,3.14,0,0,1,.91,2.24,3,3,0,0,1-1.14,2.1Zm-.93-1,1.3-1.16a1.54,1.54,0,0,0,.59-1.1,1.79,1.79,0,0,0-.53-1.21,2,2,0,0,0-1.16-.69,1.46,1.46,0,0,0-1.18.38L50.86,73Z"/><path class="cls-3" d="M63.66,73.06a2.52,2.52,0,0,1-.57-.41,2,2,0,0,1-.67,1.69,2,2,0,0,1-1.55.54,2.5,2.5,0,0,1-2.14-2.63,3.07,3.07,0,0,1,1.15-1.87l.63-.56-.32-.36a1.54,1.54,0,0,0-.81-.52,1,1,0,0,0-.84.29,1,1,0,0,0-.39.73,1,1,0,0,0,.25.74l-1,.92a2,2,0,0,1-.5-1.08A2.37,2.37,0,0,1,57,69.31a2.84,2.84,0,0,1,.77-1.08,2.32,2.32,0,0,1,1.72-.66,2.55,2.55,0,0,1,1.72.93L63.41,71a4.29,4.29,0,0,0,1.23,1l.08.09Zm-1.93.12a1.41,1.41,0,0,0,.42-.69,1.54,1.54,0,0,0,0-.85l-.92-1-.56.5a1.74,1.74,0,0,0-.66,1,1.11,1.11,0,0,0,.32.93,1.08,1.08,0,0,0,.7.4A1,1,0,0,0,61.73,73.18Z"/><path class="cls-3" d="M64.15,64.77a3,3,0,0,0-.46.33,1.26,1.26,0,0,0-.38,1.51l3.36,3.78-1,.92-4.91-5.53,1-.88.58.6a1.53,1.53,0,0,1,.4-1.65,1.14,1.14,0,0,1,.43-.25Z"/><path class="cls-3" d="M68.1,64.88l0,1,1.61,1.8-1,.92-7-7.85,1-.92,4,4.53-.11-.77-.25-2.86,1.24-1.1L68,63.43,72.78,65,71.58,66Z"/><path class="cls-3" d="M67.08,57.57a1.11,1.11,0,0,1-.27-.61.79.79,0,0,1,.87-.77.94.94,0,0,1,.58.33,1,1,0,0,1,.26.61.69.69,0,0,1-.27.57.72.72,0,0,1-.6.2A1,1,0,0,1,67.08,57.57Zm7.29,6-1,.92L68.42,59l1-.92Z"/><path class="cls-3" d="M71.55,56.17l.6.61a2.06,2.06,0,0,1,.69-1.93c1-.86,2-.63,3.22.67l3.24,3.66-1,.92-3.18-3.59a1.82,1.82,0,0,0-.88-.61,1,1,0,0,0-.85.3A1.32,1.32,0,0,0,73,57.71l3.49,3.94-1,.92L70.58,57Z"/><path class="cls-3" d="M77.69,55.6a5,5,0,0,1-1.32-2.51,2,2,0,0,1,.66-2,1.87,1.87,0,0,1,1.82-.44l-.44-.6.93-.83,4.76,5.36a3.32,3.32,0,0,1,1,2.22,2.63,2.63,0,0,1-1,2,2.86,2.86,0,0,1-1.21.63,2.49,2.49,0,0,1-1.33,0l-.17-1.18a1.86,1.86,0,0,0,1.78-.37,1.34,1.34,0,0,0,.52-1,1.9,1.9,0,0,0-.58-1.25l-.33-.38a1.87,1.87,0,0,1-.66,1.66,2.06,2.06,0,0,1-2,.41A5.11,5.11,0,0,1,77.69,55.6Zm1.13-.81a3.55,3.55,0,0,0,1.44,1.06,1.18,1.18,0,0,0,1.22-.23,1.31,1.31,0,0,0,.35-1.46l-2.16-2.44a1.31,1.31,0,0,0-1.48.19,1.17,1.17,0,0,0-.36,1.19A3.91,3.91,0,0,0,78.82,54.79Z"/><circle class="cls-4" cx="50" cy="50" r="44.3"/><line class="cls-4" x1="80.59" y1="19.57" x2="16.28" y2="79.07"/></svg>