<svg id="Layer_1" data-name="Layer 1" xmlns="http://www.w3.org/2000/svg" viewBox="0 0 100 100"><defs><style>.cls-1{fill:#fff;}.cls-2{fill:gray;}.cls-3{fill:#3f3f3f;}</style></defs><rect width="100" height="100"/><rect id="svg_4" data-name="svg 4" class="cls-1" x="-0.5" y="40.26" width="100.5" height="10.74"/><rect id="svg_5" data-name="svg 5" class="cls-1" x="13.07" y="46" width="13.71" height="54"/><rect id="svg_6" data-name="svg 6" class="cls-1" x="43.47" y="46" width="12.88" height="54"/><rect id="svg_7" data-name="svg 7" class="cls-1" x="72.5" y="46" width="12.26" height="54"/><g id="svg_8" data-name="svg 8"><path id="window" class="cls-2" d="M26.6,5.26l-4.39,8.53-1.36,12.6,1,16.88.66,9.2,9.51,12.4,11.45.33,7.19-3.76,1.78-6.35.15-17.27L51.18,14.69,46.87,3,26.6,5.26Z"/><path id="car" class="cls-3" d="M38.31,80.47h0a18.31,18.31,0,0,0,7.85-2c2.06-6.33,4.84-3.68,4.92-3.68a13.52,13.52,0,0,0,3.19-5.34c1.34-4.37-.6-11.37-.6-11.37l-.21-8.58a5.81,5.81,0,0,0,2.36-1.07c1.42-1,.61-2.82.61-2.82l-2.87.83s-.37-12.22.26-21.58-2-16.26-2.65-19S49.4,3.08,45.39,2.41a60,60,0,0,0-8.93-.47,55.8,55.8,0,0,0-8.9.81c-4,.77-5.07,1-5.6,3.78s-2.91,9.75-1.85,19.07S21.3,47.15,21.3,47.15l-2.9-.7s-.81,1.89.66,2.79a5.86,5.86,0,0,0,2.4,1l.2,8.58s-1.71,7-.07,11.38a14.69,14.69,0,0,0,3.26,5.1c.58-.43,2.76-1.84,4.75,3.38a17.77,17.77,0,0,0,8,1.76h.42c0,.09.26.08.26.08Zm13.26-32S48.11,46,47.92,34.21s3-15.79,3-15.79ZM27.74,17.69a51.47,51.47,0,0,1,.63-5.79c.38-2,4.84-3.94,8.23-4.1h.85c3.4,0,7.85,1.77,8.32,3.71a54.48,54.48,0,0,1,.91,5.84c.11,1,0,2.8-2.31,2.86l-6.88.16H37l-6.79.16c-2.38.06-2.51-1.81-2.45-2.83Zm-5,1.31s3.49,3.82,3.68,15.63-3.06,14.42-3.06,14.42ZM37.84,60.6C30,60.79,26.73,57.81,25.67,56s.18-6.88.56-8.5,2.08-2.18,3.6-2.21L37,45.08l1.18,0,7.13-.16c1.53,0,3.33.43,3.71,2s1.93,6.5.87,8.48-4.21,5-12,5.2v0Z"/></g></svg>